# Blender 3.6.2
# www.blender.org
mtllib Pared_01.mtl
o Cube
v 0.412694 4.320386 -2.278366
v 0.412694 0.004807 -2.278366
v 0.412694 4.320386 2.278366
v 0.412694 0.004807 2.278366
v -0.412694 4.320386 -2.278366
v -0.412694 0.004807 -2.278366
v -0.412694 4.320386 2.278366
v -0.412694 0.004807 2.278366
v 0.412694 4.057066 -2.278366
v -0.412694 4.057066 2.278366
v 0.412694 4.057066 2.278366
v -0.412694 4.057066 -2.278366
v 0.412694 0.176648 -2.278366
v 0.412694 0.176648 2.278366
v -0.412694 0.176648 -2.278366
v -0.412694 0.176648 2.278366
v -0.412694 3.942063 2.278366
v 0.412694 3.942063 -2.278366
v 0.412694 3.942063 2.278366
v -0.412694 3.942063 -2.278366
v 0.460977 0.176648 -2.278366
v 0.460977 0.004807 -2.278366
v 0.460977 0.176648 2.278366
v 0.460977 0.004807 2.278366
v -0.440554 0.004807 -2.278366
v -0.440554 0.004807 2.278366
v -0.440554 0.176648 -2.278366
v -0.440554 0.176648 2.278366
v -0.412694 0.004807 1.718063
v 0.412694 4.320386 1.718063
v -0.412694 4.320386 1.718063
v 0.412694 0.004807 1.718063
v 0.412694 4.057066 1.718063
v -0.412694 4.057066 1.718063
v -0.412694 0.176648 1.718063
v 0.412694 0.176648 1.718063
v -0.412694 3.942063 1.718063
v 0.412694 3.942063 1.718063
v 0.460977 0.004807 1.718063
v 0.460977 0.176648 1.718063
v -0.440554 0.004807 1.718063
v -0.440554 0.176648 1.718063
v -0.412694 4.320386 -1.667800
v 0.412694 0.004807 -1.667800
v -0.412694 4.057066 -1.667800
v -0.412694 0.176648 -1.667800
v -0.412694 3.942063 -1.667800
v 0.460977 0.004807 -1.667800
v -0.440554 0.176648 -1.667800
v -0.412694 0.004807 -1.667800
v 0.412694 4.320386 -1.667800
v 0.412694 4.057066 -1.667800
v 0.412694 0.176648 -1.667800
v 0.412694 3.942063 -1.667800
v 0.460977 0.176648 -1.667800
v -0.440554 0.004807 -1.667800
v 0.341830 4.057066 -1.667800
v 0.341830 4.057066 1.718063
v 0.341830 3.942063 -1.667800
v 0.341830 3.942063 1.718063
v -0.344905 4.057066 1.718063
v -0.344905 3.942063 1.718063
v -0.344905 4.057066 -1.667800
v -0.344905 3.942063 -1.667800
v 0.412694 1.701892 -2.278366
v 0.412694 1.701892 2.278366
v -0.412694 1.701892 -2.278366
v -0.412694 1.701892 2.278366
v 0.412694 1.701892 1.718063
v -0.412694 1.701892 1.718063
v 0.412694 1.701892 -1.667800
v -0.412694 1.701892 -1.667800
v -0.412694 3.744913 2.278366
v 0.412694 3.744913 -2.278366
v 0.412694 3.744913 2.278366
v -0.412694 3.744913 -2.278366
v 0.412694 3.744913 1.718063
v -0.412694 3.744913 1.718063
v 0.412694 3.744913 -1.667800
v -0.412694 3.744913 -1.667800
v 0.358343 3.744913 1.718063
v 0.358343 1.701892 1.718063
v 0.358343 3.744913 -1.667800
v 0.358343 1.701892 -1.667800
v -0.263019 3.744913 1.718063
v -0.263019 1.701892 1.718063
v -0.263019 3.744913 -1.667800
v -0.263019 1.701892 -1.667800
vn -0.0000 1.0000 -0.0000
vn -0.0000 -0.0000 1.0000
vn -1.0000 -0.0000 -0.0000
vn -0.0000 -1.0000 -0.0000
vn 1.0000 -0.0000 -0.0000
vn -0.0000 -0.0000 -1.0000
vt 0.625000 0.719260
vt 0.875000 0.719260
vt 0.875000 0.750000
vt 0.625000 0.750000
vt 0.609746 0.750000
vt 0.625000 1.000000
vt 0.609746 1.000000
vt 0.609746 0.216502
vt 0.625000 0.216502
vt 0.625000 0.250000
vt 0.609746 0.250000
vt 0.125000 0.719260
vt 0.375000 0.719260
vt 0.375000 0.750000
vt 0.125000 0.750000
vt 0.609746 0.719260
vt 0.625000 0.500000
vt 0.609746 0.500000
vt 0.603084 0.250000
vt 0.603084 0.500000
vt 0.603084 0.719260
vt 0.603084 0.750000
vt 0.603084 0.216502
vt 0.603084 1.000000
vt 0.384955 0.750000
vt 0.384955 1.000000
vt 0.375000 1.000000
vt 0.375000 0.533498
vt 0.375000 0.500000
vt 0.375000 0.533498
vt 0.375000 0.250000
vt 0.384955 0.250000
vt 0.384955 0.500000
vt 0.591663 0.750000
vt 0.591663 1.000000
vt 0.591663 0.216502
vt 0.591663 0.250000
vt 0.591663 0.719260
vt 0.591663 0.500000
vt 0.384955 0.719260
vt 0.375000 0.216502
vt 0.384955 0.216502
vt 0.384955 0.000000
vt 0.384955 0.030740
vt 0.375000 0.000000
vt 0.375000 0.030740
vt 0.384955 0.533498
vt 0.384955 0.533498
vt 0.591663 0.533498
vt 0.603084 0.533498
vt 0.591663 0.000000
vt 0.603084 0.000000
vt 0.603084 0.030740
vt 0.591663 0.030740
vt 0.125000 0.533498
vt 0.609746 0.000000
vt 0.609746 0.030740
vt 0.609746 0.533498
vt 0.625000 0.533498
vt 0.625000 0.000000
vt 0.625000 0.030740
vt 0.875000 0.533498
vt 0.875000 0.500000
vt 0.125000 0.500000
vt 0.473312 0.030740
vt 0.473312 0.216502
vt 0.473312 0.500000
vt 0.473312 0.533498
vt 0.473312 0.000000
vt 0.473312 0.719260
vt 0.473312 0.250000
vt 0.473311 0.750000
vt 0.473312 1.000000
s 0
usemtl Material
f 30/1/1 31/2/1 7/3/1 3/4/1
f 11/5/2 3/4/2 7/6/2 10/7/2
f 45/8/3 43/9/3 5/10/3 12/11/3
f 33/16/5 30/1/5 3/4/5 11/5/5
f 12/11/6 5/10/6 1/17/6 9/18/6
f 20/19/6 12/11/6 9/18/6 18/20/6
f 38/21/5 33/16/5 11/5/5 19/22/5
f 47/23/3 45/8/3 12/11/3 20/19/3
f 19/22/2 11/5/2 10/7/2 17/24/2
f 75/34/2 19/22/2 17/24/2 73/35/2
f 80/36/3 47/23/3 20/19/3 76/37/3
f 77/38/5 38/21/5 19/22/5 75/34/5
f 76/37/6 20/19/6 18/20/6 74/39/6
f 79/49/5 54/50/5 38/21/5 77/38/5
f 73/51/3 17/52/3 37/53/3 78/54/3
f 17/52/3 10/56/3 34/57/3 37/53/3
f 33/16/6 38/21/6 60/21/6 58/16/6
f 52/58/5 51/59/5 30/1/5 33/16/5
f 10/56/3 7/60/3 31/61/3 34/57/3
f 51/59/1 43/62/1 31/2/1 30/1/1
f 1/17/1 5/63/1 43/62/1 51/59/1
f 9/18/5 1/17/5 51/59/5 52/58/5
f 18/20/5 9/18/5 52/58/5 54/50/5
f 74/39/5 18/20/5 54/50/5 79/49/5
f 78/54/3 37/53/3 47/23/3 80/36/3
f 47/23/1 37/53/1 62/53/1 64/23/1
f 34/57/3 31/61/3 43/9/3 45/8/3
f 59/50/5 57/58/5 58/16/5 60/21/5
f 54/50/2 52/58/2 57/58/2 59/50/2
f 52/58/4 33/16/4 58/16/4 57/58/4
f 38/21/1 54/50/1 59/50/1 60/21/1
f 62/53/3 61/57/3 63/8/3 64/23/3
f 45/8/2 47/23/2 64/23/2 63/8/2
f 34/57/4 45/8/4 63/8/4 61/57/4
f 37/53/6 34/57/6 61/57/6 62/53/6
f 72/66/1 70/65/1 86/65/1 88/66/1
f 65/67/5 74/39/5 79/49/5 71/68/5
f 68/69/3 73/51/3 78/54/3 70/65/3
f 71/68/2 79/49/2 83/49/2 84/68/2
f 67/71/6 76/37/6 74/39/6 65/67/6
f 69/70/5 77/38/5 75/34/5 66/72/5
f 72/66/3 80/36/3 76/37/3 67/71/3
f 66/72/2 75/34/2 73/35/2 68/73/2
f 84/68/5 83/49/5 81/38/5 82/70/5
f 77/38/6 69/70/6 82/70/6 81/38/6
f 69/70/1 71/68/1 84/68/1 82/70/1
f 79/49/4 77/38/4 81/38/4 83/49/4
f 86/65/3 85/54/3 87/36/3 88/66/3
f 78/54/4 80/36/4 87/36/4 85/54/4
f 80/36/2 72/66/2 88/66/2 87/36/2
f 70/65/6 78/54/6 85/54/6 86/65/6
usemtl Material.001
f 35/44/3 70/65/3 72/66/3 46/42/3
f 13/33/5 65/67/5 71/68/5 53/47/5
f 16/43/3 68/69/3 70/65/3 35/44/3
f 53/47/5 71/68/5 69/70/5 36/40/5
f 15/32/6 67/71/6 65/67/6 13/33/6
f 36/40/5 69/70/5 66/72/5 14/25/5
f 46/42/3 72/66/3 67/71/3 15/32/3
f 14/25/2 66/72/2 68/73/2 16/26/2
usemtl Material.002
f 29/12/4 32/13/4 4/14/4 8/15/4
f 4/14/2 14/25/2 16/26/2 8/27/2
f 29/12/4 8/15/4 26/15/4 41/12/4
f 44/28/4 2/29/4 22/29/4 48/30/4
f 6/31/6 15/32/6 13/33/6 2/29/6
f 39/13/5 40/40/5 23/25/5 24/14/5
f 14/25/2 4/14/2 24/14/2 23/25/2
f 36/40/1 14/25/1 23/25/1 40/40/1
f 2/29/6 13/33/6 21/33/6 22/29/6
f 56/41/3 49/42/3 27/32/3 25/31/3
f 15/32/6 6/31/6 25/31/6 27/32/6
f 46/42/1 15/32/1 27/32/1 49/42/1
f 8/27/2 16/26/2 28/26/2 26/27/2
f 16/43/1 35/44/1 42/44/1 28/43/1
f 26/45/3 28/43/3 42/44/3 41/46/3
f 53/47/1 36/40/1 40/40/1 55/48/1
f 48/30/5 55/48/5 40/40/5 39/13/5
f 4/14/4 32/13/4 39/13/4 24/14/4
f 50/55/4 29/12/4 41/12/4 56/55/4
f 50/55/4 44/28/4 32/13/4 29/12/4
f 6/64/4 2/29/4 44/28/4 50/55/4
f 6/64/4 50/55/4 56/55/4 25/64/4
f 22/29/5 21/33/5 55/48/5 48/30/5
f 13/33/1 53/47/1 55/48/1 21/33/1
f 35/44/1 46/42/1 49/42/1 42/44/1
f 41/46/3 42/44/3 49/42/3 56/41/3
f 32/13/4 44/28/4 48/30/4 39/13/4
